<svg xmlns="http://www.w3.org/2000/svg" viewBox="0 0 64 64" width="64" height="64">
  <defs>
    <linearGradient id="bg" x1="0" y1="0" x2="1" y2="1">
      <stop offset="0" stop-color="#7c3aed"/>
      <stop offset="1" stop-color="#ec4899"/>
    </linearGradient>
  </defs>
  <rect width="64" height="64" rx="14" fill="url(#bg)"/>
  <!-- palette -->
  <path d="M32 14c-10 0-18 7.2-18 16 0 6 4.4 9 9 9 2.6 0 3.8 1.8 3.8 3.6 0 1.2-.6 2-.6 3.2 0 2.2 1.9 3.2 4.2 3.2 9.7 0 17.6-7.4 17.6-16.8C52 21 43.7 14 32 14z" fill="#fff"/>
  <circle cx="24" cy="26" r="3" fill="#ef4444"/>
  <circle cx="33" cy="22" r="3" fill="#f59e0b"/>
  <circle cx="42" cy="26" r="3" fill="#22c55e"/>
  <circle cx="43" cy="34" r="3" fill="#0ea5e9"/>
</svg>
